<svg xmlns="http://www.w3.org/2000/svg" xmlns:xlink="http://www.w3.org/1999/xlink" viewBox="0,0,256,256" width="48px" height="48px" fill-rule="nonzero"><defs><linearGradient x1="5.002" y1="4.974" x2="21.706" y2="21.678" gradientUnits="userSpaceOnUse" id="color-1"><stop offset="0" stop-color="#956da5"></stop><stop offset="1" stop-color="#956da5"></stop></linearGradient><linearGradient x1="2.183" y1="9.008" x2="10.13" y2="16.955" gradientUnits="userSpaceOnUse" id="color-2"><stop offset="0" stop-color="#ffffff" stop-opacity="0.7"></stop><stop offset="0.519" stop-color="#ffffff" stop-opacity="0.45"></stop><stop offset="1" stop-color="#ffffff" stop-opacity="0.55"></stop></linearGradient><linearGradient x1="4.106" y1="4.078" x2="21.013" y2="20.984" gradientUnits="userSpaceOnUse" id="color-3"><stop offset="0" stop-color="#ffffff" stop-opacity="0.6"></stop><stop offset="0.493" stop-color="#ffffff" stop-opacity="0"></stop><stop offset="0.997" stop-color="#ffffff" stop-opacity="0.3"></stop></linearGradient></defs><g transform=""><g fill="none" fill-rule="nonzero" stroke="none" stroke-width="1" stroke-linecap="butt" stroke-linejoin="none" stroke-miterlimit="10" stroke-dasharray="" stroke-dashoffset="0" font-family="none" font-weight="none" font-size="none" text-anchor="none" style="mix-blend-mode: normal"><path transform="scale(10.66667,10.66667)" d="M7.335,20.749c-0.157,-0.272 -0.26,-0.567 -0.309,-0.868c-0.332,0.069 -0.676,0.105 -1.028,0.105c-2.758,0.001 -4.998,-2.238 -4.998,-4.997c0,-2.048 1.228,-3.796 3.004,-4.561v-2.429c-0.573,0 -1.009,-0.462 -1.009,-1.009c0,-0.547 0.436,-0.983 1.009,-0.983h3.985c0.548,0 1.012,0.436 1.012,0.983c0,0.547 -0.464,1.009 -1.012,1.009l0,2.429c1.06784,0.46022 1.93807,1.27622 2.46198,2.29927l1.55202,-2.73427v-5.078c-0.6,-0.219 -1.011,-0.765 -1.011,-1.421c0,-0.819 0.683,-1.501 1.503,-1.501h4.996c0.819,0 1.503,0.683 1.503,1.501c0,0.656 -0.409,1.203 -1.012,1.421v5.079l4.697,8.272c0.436,0.793 0.409,1.721 -0.027,2.484c-0.464,0.767 -1.284,1.259 -2.157,1.259h-11.003c-0.875,-0.001 -1.72,-0.493 -2.157,-1.26z" id="strokeMainSVG" fill="#dddddd" stroke="#dddddd" stroke-linejoin="round"></path><g transform="scale(10.66667,10.66667)" stroke="none" stroke-linejoin="miter"><path d="M7.335,20.749c-0.157,-0.272 -0.26,-0.567 -0.309,-0.868c-0.332,0.069 -0.676,0.105 -1.028,0.105c-2.758,0.001 -4.998,-2.238 -4.998,-4.997c0,-2.048 1.228,-3.796 3.004,-4.561v-2.429c-0.573,0 -1.009,-0.463 -1.009,-1.009c0,-0.547 0.436,-0.983 1.009,-0.983h3.985c0.548,0 1.012,0.436 1.012,0.983c0,0.547 -0.464,1.009 -1.012,1.009v2.429c1.067,0.461 1.937,1.277 2.461,2.301l1.553,-2.736v-5.078c-0.6,-0.219 -1.011,-0.765 -1.011,-1.421c0,-0.819 0.683,-1.501 1.503,-1.501h4.996c0.819,0 1.503,0.683 1.503,1.501c0,0.656 -0.409,1.203 -1.012,1.421v5.079l4.697,8.272c0.436,0.793 0.409,1.721 -0.027,2.484c-0.464,0.767 -1.284,1.259 -2.157,1.259h-11.003c-0.875,-0.001 -1.72,-0.493 -2.157,-1.26z" fill="url(#color-1)"></path><path d="M7.989,10.428v-2.429c0.548,0 1.012,-0.463 1.012,-1.009c0,-0.547 -0.464,-0.983 -1.012,-0.983h-3.985c-0.573,0 -1.009,0.436 -1.009,0.983c0,0.547 0.436,1.009 1.009,1.009v2.429c-1.776,0.765 -3.004,2.513 -3.004,4.561c0,2.759 2.24,4.997 4.997,4.997c2.757,0 4.996,-2.239 4.996,-4.997c0,-2.048 -1.229,-3.796 -3.004,-4.561z" fill="url(#color-2)"></path><path d="M7.335,20.749c-0.157,-0.272 -0.26,-0.567 -0.309,-0.868c-0.332,0.069 -0.676,0.105 -1.028,0.105c-2.758,0.001 -4.998,-2.238 -4.998,-4.997c0,-2.048 1.228,-3.796 3.004,-4.561v-2.429c-0.573,0 -1.009,-0.463 -1.009,-1.009c0,-0.547 0.436,-0.983 1.009,-0.983h3.985c0.548,0 1.012,0.436 1.012,0.983c0,0.547 -0.464,1.009 -1.012,1.009v2.429c1.067,0.461 1.937,1.277 2.461,2.301l1.553,-2.736v-5.078c-0.6,-0.219 -1.011,-0.765 -1.011,-1.421c0,-0.819 0.683,-1.501 1.503,-1.501h4.996c0.819,0 1.503,0.683 1.503,1.501c0,0.656 -0.409,1.203 -1.012,1.421v5.079l4.697,8.272c0.436,0.793 0.409,1.721 -0.027,2.484c-0.464,0.767 -1.284,1.259 -2.157,1.259h-11.003c-0.875,-0.001 -1.72,-0.493 -2.157,-1.26zM22.221,20.496c0.349,-0.611 0.369,-1.353 0.021,-1.987l-4.696,-8.268c-0.043,-0.076 -0.064,-0.161 -0.064,-0.248v-5.078c0,-0.209 0.131,-0.397 0.329,-0.469c0.415,-0.151 0.683,-0.517 0.683,-0.952c0,-0.541 -0.46,-1.001 -1.003,-1.001h-4.996c-0.545,0 -1.003,0.46 -1.003,1.001c0,0.435 0.267,0.801 0.681,0.952c0.197,0.072 0.329,0.26 0.329,0.469v5.079c0,0.087 -0.023,0.172 -0.065,0.248l-1.553,2.736c-0.196,0.345 -0.7,0.333 -0.88,-0.02c-0.471,-0.92 -1.255,-1.655 -2.215,-2.069c-0.184,-0.08 -0.301,-0.26 -0.301,-0.46v-2.43c0,-0.275 0.224,-0.5 0.5,-0.5c0.272,0 0.512,-0.24 0.512,-0.509c0,-0.252 -0.221,-0.483 -0.512,-0.483h-3.984c-0.307,0 -0.509,0.221 -0.509,0.483c0,0.28 0.22,0.509 0.509,0.509c0.275,0 0.5,0.225 0.5,0.5v2.429c0,0.2 -0.12,0.381 -0.303,0.46c-1.598,0.689 -2.701,2.261 -2.701,4.101c0,2.483 2.016,4.497 4.497,4.497c0.317,0 0.627,-0.032 0.925,-0.095c0.279,-0.057 0.549,0.128 0.596,0.409c0.039,0.244 0.123,0.48 0.249,0.7c0.349,0.613 1.029,1.007 1.724,1.007h11.004c0.685,0.001 1.349,-0.387 1.726,-1.011z" fill="url(#color-3)"></path></g></g></g></svg>